<svg xmlns="http://www.w3.org/2000/svg" viewBox="0 0 300.6 55.8"><style>.st0{fill:none;stroke:#D6071B;stroke-linecap:round;stroke-linejoin:round;} .st1{fill:#D6071B;}</style><path class="st0" d="M.5 32.4h299.3"/><path class="st1" d="M.4 7.2C.4 2.7 3 .1 9.2.1c2.3 0 4.7.3 6.7.8l-.5 4c-2-.4-4.3-.6-6-.6-3.2 0-4.3 1.1-4.3 3.7v9.5c0 2.6 1 3.7 4.3 3.7 1.7 0 4-.3 6-.6l.5 4c-2 .5-4.4.8-6.7.8-6.1 0-8.8-2.6-8.8-7.1V7.2zm18.3 0c0-4.5 2.6-7.1 8.8-7.1 2.3 0 4.7.3 6.7.8l-.5 4c-2-.4-4.3-.6-6-.6-3.2 0-4.3 1.1-4.3 3.7v9.5c0 2.6 1 3.7 4.3 3.7 1.7 0 4-.3 6-.6l.5 4c-2 .5-4.4.8-6.7.8-6.1 0-8.8-2.6-8.8-7.1V7.2zm34.2 14.7H47L42.4 9.1l-.4 16h-4.8L38.3.5h5.2L49.9 18 56.3.5h5.2l1.1 24.6h-4.8l-.3-16-4.6 12.8z"/><path d="M70.6.4h18c3.5 0 6.8 1.6 6.8 6 0 1.8-.9 4.1-3.2 4.8v.1c2.8.5 4.3 3.2 4.3 5.8 0 3.2-1.5 7.3-8.7 7.3H70.6V.4zm6.5 9.6h9.1c1.5 0 2.5-.8 2.5-2.6 0-1.5-.7-2.6-3.4-2.6h-8.2V10zm0 9.8h9.6c2 0 2.8-1.3 2.8-2.8 0-1.9-1.2-2.9-3.5-2.9h-8.9v5.7zm45.2-.8c-1.7 4.3-5.8 6-11.2 6-7.1 0-11.9-2.9-11.9-9.7s4.8-9.7 11.9-9.7c7.8 0 11.6 3.9 11.6 10.7v.5h-17.3v.1c0 1.7 1.7 4.3 5.8 4.3 2.4 0 4.1-.8 4.9-2.4h6.2v.2zm-5.8-5.5c0-1-1.2-4.1-5.6-4.1-4.7 0-5.6 3.6-5.6 4v.1h11.2zm24.1.7c0-2.5-1.3-3.7-4-3.7-2.8 0-5.1 1.4-5.1 5.2v8.7h-5.9v-18h5.7V9h.1c1.1-1.5 3.9-3.1 7.4-3.1 3.1 0 7.7 1.2 7.7 6.5v12h-5.9V14.2zm23.4-1.1c-.6-2.4-2.2-3.2-4.3-3.2-3.2 0-5.1 2-5.1 5.5s1.9 5.5 5.1 5.5c2.3 0 4-1.4 4.3-3.7h5.4c-.9 6.4-5 7.8-10.1 7.8-6 0-10-2.9-10-9.7s4.2-9.7 10.4-9.7c4 0 8.7 1.4 9.7 7.3H164v.2zM172.2 0h5.9v9h.1c.9-1.5 3.7-3.1 7.2-3.1 3.1 0 7.7 1.2 7.7 6.5v12h-5.9V14.2c0-2.5-1.3-3.7-4-3.7-2.8 0-5.1 1.4-5.1 5.2v8.7h-5.9V0zm52.9 13.6c0-2.4-1.9-3.1-3.6-3.1-2.5 0-4.5 1.3-4.5 4.2v9.7h-5.9V13.6c0-2.4-1.9-3.1-3.6-3.1-2.5 0-4.5 1.3-4.5 4.2v9.7h-5.9v-18h5.7V9h.1c1.1-1.5 3.9-3.1 7.4-3.1 3.4 0 5.3 1.3 6.2 3.4 1.6-2.2 4.1-3.4 7.4-3.4 3.6 0 7.2 1.5 7.2 6.3v12.2h-5.9l-.1-10.8zm10-1.7c.7-5.5 5.8-6.2 10.6-6.2 8.5 0 10.3 2.8 10.3 6.1v8.9c0 1.6.3 2.7.7 3.6h-5.9c-.2-.6-.4-1.3-.4-1.9-2 2-5.8 2.6-8.4 2.6-4.7 0-8-1.6-8-5.8 0-4.4 3.9-5.3 7.5-5.5l6.3-.4c1.8-.1 2.4-.4 2.4-1.9 0-1.4-1.2-2.1-4.6-2.1-2.5 0-3.8.2-4.7 2.7h-5.8v-.1zm15.3 3.7c-1.1.5-2.3.7-3.5.8l-3.4.3c-2.1.2-3.1.7-3.1 2.4 0 1.6 1.5 2.5 3.7 2.5 3 0 6.3-1.4 6.3-4.5v-1.5zm9.6-9.2h5.7v3.5h.1c2.1-2.8 3.8-4 7.2-4 .7 0 1.5 0 2.1.2v5.5c-1.1-.3-2.1-.5-3.3-.5-4 0-5.9 2-5.9 5.5v7.8H260v-18zM277.4 0h5.9v13.1l7.8-6.7h8.3l-8.6 6.9 9.1 11.1h-7.8l-5.9-7.5-2.9 2.3v5.2h-5.9V0zM240.1 55c-.9.3-1.8.5-2.7.6s-1.9.2-2.8.2c-1 0-1.8-.1-2.6-.4-.7-.2-1.3-.6-1.8-1s-.9-1-1.1-1.6c-.2-.6-.4-1.3-.4-2v-6.7c0-.7.1-1.4.4-2 .2-.6.6-1.1 1.1-1.6.5-.4 1.1-.8 1.8-1s1.6-.3 2.6-.3c.9 0 1.8.1 2.7.2.9.1 1.7.2 2.4.3l-.4 3.2c-.4 0-.7-.1-1.2-.1-.4 0-.9-.1-1.3-.1s-.8-.1-1.2-.1h-1c-.4 0-.8.1-1.1.2-.3.1-.5.3-.7.5s-.3.4-.3.7c-.1.3-.1.6-.1.9v5.5c0 .3 0 .6.1.9.1.3.2.5.3.7.2.2.4.4.7.5s.7.2 1.1.2h1c.3 0 .7-.1 1.1-.1v-4.9h3.4V55zm8.8-4.5h-2.1v5h-3.6V39.4h6.7c1 0 1.8.1 2.5.3s1.2.5 1.7.9c.4.4.7.9.9 1.4.2.6.3 1.2.3 2v2c0 1-.2 1.9-.6 2.5-.4.7-1 1.2-1.8 1.5l3.9 5.5h-4.3l-3.6-5zm2.6-6.2c0-.6-.1-1-.4-1.3-.3-.3-.8-.4-1.5-.4h-2.9v4.7h2.9c.8 0 1.3-.1 1.5-.4.3-.3.4-.7.4-1.3v-1.3zm19.2 6.5c0 .6-.1 1.2-.3 1.8-.2.6-.6 1.1-1.1 1.6s-1.1.8-1.9 1.1-1.8.4-2.9.4-2.1-.1-2.9-.4c-.8-.3-1.4-.7-1.9-1.1-.5-.5-.8-1-1.1-1.6-.2-.6-.3-1.2-.3-1.8v-6.7c0-.6.1-1.2.3-1.8.2-.6.6-1.1 1.1-1.6s1.1-.8 1.9-1.1 1.8-.4 2.9-.4 2.1.1 2.9.4c.8.3 1.4.7 1.9 1.1.5.5.8 1 1.1 1.6.2.6.3 1.2.3 1.8v6.7zm-3.6-6.4c0-.6-.2-1.1-.6-1.5s-1.1-.5-2-.5-1.6.2-2 .5c-.4.4-.6.9-.6 1.5v6.1c0 .6.2 1.1.6 1.5s1.1.5 2 .5 1.6-.2 2-.5c.4-.4.6-.9.6-1.5v-6.1zm18.4-5v11.4c0 .6-.1 1.2-.3 1.8-.2.6-.5 1.1-1 1.6s-1.1.8-1.9 1.1-1.7.4-2.9.4c-1.1 0-2.1-.1-2.9-.4-.8-.3-1.4-.7-1.9-1.1-.5-.5-.8-1-1-1.6s-.3-1.2-.3-1.8V39.4h3.6v11c0 .7.2 1.2.5 1.5.4.4 1 .5 1.9.5s1.6-.2 1.9-.5c.4-.4.5-.9.5-1.5v-11h3.8zm14.9 6.7c0 1.5-.4 2.6-1.3 3.4-.9.8-2.3 1.1-4.2 1.1h-2.7v4.9h-3.6V39.4h6.6c1 0 1.8.1 2.5.3s1.2.5 1.7.9c.4.4.7.9.9 1.4.2.6.3 1.2.3 2v2.1h-.2zm-3.6-1.8c0-.6-.1-1-.4-1.3s-.8-.4-1.5-.4h-2.7v4.8h2.7c.8 0 1.3-.1 1.6-.4.2-.3.4-.7.4-1.3v-1.4h-.1z"/></svg>